#N canvas 951 14 958 956 12;
#X msg 82 380 open \$1;
#X msg 196 464;
#X obj 99 489 print ARDUINO.INFO;
#X floatatom 45 304 5 0 0 0 - - - 0;
#X msg 606 232 analog 11 \$1;
#X obj 609 195 hsl 162 19 0 1 0 0 empty empty empty -2 -10 0 12 #0400ff #000000 #000000 0 1;
#X text 264 461 BLUE;
#X obj 206 20 bng 19 250 50 1 empty empty empty 0 -10 0 12 #fcfcfc #000000 #000000;
#X obj 248 196 hsl 162 19 0 1 0 0 empty empty empty -2 -10 0 12 #00ff04 #000000 #000000 0 1;
#X obj 427 196 hsl 162 19 0 1 0 0 empty empty empty -2 -10 0 12 #ff0400 #000000 #000000 0 1;
#X msg 84 165 pinMode 9 pwm;
#X msg 103 194 pinMode 10 pwm;
#X msg 113 222 pinMode 11 pwm;
#X msg 245 220 analog 9 \$1;
#X msg 424 222 analog 10 \$1;
#X msg 39 85 pinMode 3 pwm;
#X msg 58 113 pinMode 5 pwm;
#X msg 71 141 pinMode 6 pwm;
#X obj 604 282 hsl 162 19 0 1 0 0 empty empty empty -2 -10 0 12 #0400ff #000000 #000000 0 1;
#X obj 243 283 hsl 162 19 0 1 0 0 empty empty empty -2 -10 0 12 #00ff04 #000000 #000000 0 1;
#X obj 422 283 hsl 162 19 0 1 0 0 empty empty empty -2 -10 0 12 #ff0400 #000000 #000000 0 1;
#X msg 240 306 analog 3 \$1;
#X msg 419 309 analog 5 \$1;
#X msg 601 319 analog 6 \$1;
#X obj 459 92 hsl 162 19 0 127 0 0 empty empty empty -2 -10 0 12 #fcfcfc #000000 #000000 0 1;
#X obj 464 52 osc~ 1;
#X obj 531 671 +~ 1;
#X obj 531 695 *~ 0.5;
#X obj 531 719 snapshot~;
#X obj 531 743 metro 10;
#X obj 531 767 hsl 162 19 0 1 0 0 empty empty empty -2 -10 0 12 #fcfcfc #000000 #000000 0 1;
#X obj 532 647 osc~ 0.5;
#X obj 547 619 tgl 19 0 empty empty empty 0 -10 0 12 #fcfcfc #000000 #000000 0 1;
#X obj 63 610 mrpeach/udpreceive;
#X msg 57 547 status;
#X msg 110 552 port 9001;
#X obj 62 635 mrpeach/unpackOSC;
#X obj 60 739 expr $f1 / 350;
#X msg 725 729 open \$1;
#X msg 839 813;
#X obj 742 838 print ARDUINO.INFO;
#X floatatom 688 653 5 0 0 0 - - - 0;
#X obj 849 369 bng 19 250 50 1 empty empty empty 0 -10 0 12 #fcfcfc #000000 #000000;
#X msg 727 514 pinMode 9 pwm;
#X msg 746 543 pinMode 10 pwm;
#X msg 756 571 pinMode 11 pwm;
#X msg 682 434 pinMode 3 pwm;
#X msg 701 462 pinMode 5 pwm;
#X msg 714 490 pinMode 6 pwm;
#X obj 791 766 pduino/arduino;
#X obj 148 416 pduino/arduino;
#X obj 60 774 print receivedManoIzqX;
#X obj 63 849 print receivedManoIzqY;
#X obj 59 809 expr $f1 / 800;
#X obj 66 927 print receivedManoIzqZ;
#X obj 62 669 route /ManoIzqX /ManoIzqY /ManoIzqZ /ManoDerX /ManoDerY /ManoDerZ;
#X obj 254 733 expr $f1 / 350;
#X obj 253 803 expr $f1 / 800;
#X obj 254 768 print receivedManoDerX;
#X obj 257 843 print receivedManDerY;
#X obj 260 921 print receivedManoDerZ;
#X obj 62 887 expr $f1 / 200;
#X obj 256 881 expr $f1 / 200;
#X connect 0 0 50 0;
#X connect 3 0 0 0;
#X connect 4 0 49 0;
#X connect 4 0 50 0;
#X connect 5 0 4 0;
#X connect 7 0 10 0;
#X connect 7 0 11 0;
#X connect 7 0 12 0;
#X connect 7 0 15 0;
#X connect 7 0 16 0;
#X connect 7 0 17 0;
#X connect 8 0 13 0;
#X connect 9 0 14 0;
#X connect 10 0 50 0;
#X connect 11 0 50 0;
#X connect 12 0 50 0;
#X connect 13 0 49 0;
#X connect 13 0 50 0;
#X connect 14 0 49 0;
#X connect 14 0 50 0;
#X connect 15 0 50 0;
#X connect 16 0 50 0;
#X connect 17 0 50 0;
#X connect 18 0 23 0;
#X connect 19 0 21 0;
#X connect 20 0 22 0;
#X connect 21 0 49 0;
#X connect 21 0 50 0;
#X connect 22 0 49 0;
#X connect 22 0 50 0;
#X connect 23 0 49 0;
#X connect 23 0 50 0;
#X connect 26 0 27 0;
#X connect 27 0 28 0;
#X connect 28 0 29 0;
#X connect 29 0 30 0;
#X connect 31 0 26 0;
#X connect 32 0 31 0;
#X connect 33 0 36 0;
#X connect 34 0 33 0;
#X connect 35 0 33 0;
#X connect 36 0 55 0;
#X connect 37 0 51 0;
#X connect 37 0 8 0;
#X connect 38 0 49 0;
#X connect 41 0 38 0;
#X connect 42 0 43 0;
#X connect 42 0 44 0;
#X connect 42 0 45 0;
#X connect 42 0 46 0;
#X connect 42 0 47 0;
#X connect 42 0 48 0;
#X connect 43 0 49 0;
#X connect 44 0 49 0;
#X connect 45 0 49 0;
#X connect 46 0 49 0;
#X connect 47 0 49 0;
#X connect 48 0 49 0;
#X connect 49 0 40 0;
#X connect 49 1 39 0;
#X connect 50 0 2 0;
#X connect 50 1 1 0;
#X connect 53 0 52 0;
#X connect 53 0 9 0;
#X connect 55 0 37 0;
#X connect 55 1 53 0;
#X connect 55 2 61 0;
#X connect 55 3 56 0;
#X connect 55 4 57 0;
#X connect 55 5 62 0;
#X connect 56 0 58 0;
#X connect 56 0 19 0;
#X connect 57 0 59 0;
#X connect 57 0 20 0;
#X connect 61 0 54 0;
#X connect 61 0 5 0;
#X connect 62 0 60 0;
#X connect 62 0 18 0;
