#N canvas 952 0 958 956 12;
#X msg 248 165 analog 11 \$1;
#X obj 251 138 hsl 162 19 0 1 0 0 empty empty empty -2 -10 0 12 #0400ff #000000 #000000 0 1;
#X obj 156 111 hsl 162 19 0 1 0 0 empty empty empty -2 -10 0 12 #00ff04 #000000 #000000 0 1;
#X obj 53 82 hsl 162 19 0 1 0 0 empty empty empty -2 -10 0 12 #ff0400 #000000 #000000 0 1;
#X msg 153 138 analog 9 \$1;
#X msg 50 109 analog 10 \$1;
#X obj 287 334 hsl 162 19 0 1 0 0 empty empty empty -2 -10 0 12 #0400ff #000000 #000000 0 1;
#X obj 178 309 hsl 162 19 0 1 0 0 empty empty empty -2 -10 0 12 #00ff04 #000000 #000000 0 1;
#X obj 58 280 hsl 162 19 0 1 0 0 empty empty empty -2 -10 0 12 #ff0400 #000000 #000000 0 1;
#X msg 175 332 analog 3 \$1;
#X msg 55 306 analog 5 \$1;
#X msg 284 371 analog 6 \$1;
#X obj 478 182 mrpeach/udpreceive;
#X msg 532 153 status;
#X msg 478 132 port 9001;
#X obj 477 207 mrpeach/unpackOSC;
#X obj 477 241 route /ManoIzqX /ManoIzqY /ManoIzqZ /ManoDerX /ManoDerY /ManoDerZ;
#X obj 835 128 s bang;
#X obj 835 78 bng 19 250 50 1 empty empty empty 0 -10 0 12 #fcfcfc #000000 #000000;
#N canvas 222 325 1033 571 HSV2RGB 0;
#X obj 295 79 / 100;
#X obj 368 96 / 100;
#X obj 215 173 nbx 4 14 0 255 0 0 empty empty Red 48 8 0 10 #fcfcfc #000000 #000000 0 256;
#X obj 376 339 t b f;
#X obj 296 384 +;
#X obj 296 406 t b f;
#X obj 216 451 +;
#X obj 215 192 * -65536;
#X obj 295 192 * -256;
#X obj 376 317 * -1;
#X obj 216 473 - 1;
#X msg 216 495 color \$1;
#X obj 216 517 s \$0-setcanvas;
#X obj 295 173 nbx 4 14 0 255 0 0 empty empty Green 48 8 0 10 #fcfcfc #000000 #000000 0 256;
#X obj 375 173 nbx 4 14 0 255 0 0 empty empty Blue 48 8 0 10 #fcfcfc #000000 #000000 0 256;
#X obj 44 60 cnv 15 100 350 empty \$0-setcanvas empty 20 12 0 14 #8c5200 #404040 0;
#X text 43 40 Canvas:;
#X obj 215 100 nbx 5 14 0 360 0 1 empty empty Hue 0 -8 0 10 #fcfcfc #000000 #000000 90 256;
#X obj 295 60 nbx 5 14 0 100 0 1 empty empty Saturation 0 -8 0 10 #fcfcfc #000000 #000000 100 256;
#X obj 375 60 nbx 5 14 0 100 0 1 empty empty Lightness 0 -8 0 10 #fcfcfc #000000 #000000 26.625 256;
#N canvas 192 192 450 300 hsl2rgb 0;
#X obj 36 233 f;
#X obj 36 256 t f f f;
#X obj 36 141 pack f f f;
#X obj 186 95 t b f;
#X obj 36 187 route 0;
#X obj 36 210 b;
#X obj 96 233 unpack f f f;
#X obj 116 95 t b f;
#X msg 36 164 \$2 \$1 \$3;
#X text 97 192 H;
#X obj 208 302 moses 0.5;
#X obj 223 325 + 1;
#X obj 208 348 *;
#X obj 171 279 t f f;
#X text 137 192 S;
#X text 117 192 L;
#X obj 259 325 t f f;
#X obj 259 348 +;
#X obj 259 371 -;
#X obj 286 348 *;
#X obj 208 394 t f;
#X obj 171 394 * 2;
#X obj 171 417 -;
#N canvas 796 364 323 436 hue2rgb 0;
#X obj 36 49 inlet;
#X obj 116 49 inlet;
#X obj 196 49 inlet;
#X text 38 30 T;
#X text 198 30 Q;
#X text 118 30 P;
#X obj 36 72 moses;
#X obj 36 95 + 1;
#X obj 63 95 moses 1;
#X obj 102 118 - 1;
#X obj 36 141 t f;
#X obj 36 187 * 6;
#X obj 181 118 +;
#X obj 181 95 * -1;
#X obj 36 210 *;
#X obj 36 233 +;
#X obj 36 371 outlet;
#X obj 117 187 moses 0.5;
#X obj 117 210 b;
#X obj 117 233 f;
#X obj 168 210 moses 0.666667;
#X obj 249 233 b;
#X obj 249 256 f;
#X obj 168 233 * -1;
#X obj 168 256 + 0.666667;
#X obj 168 279 * 6;
#X obj 168 302 *;
#X obj 168 325 +;
#X obj 36 164 moses 0.166667;
#X connect 0 0 6 0;
#X connect 1 0 13 0;
#X connect 1 0 15 1;
#X connect 1 0 22 1;
#X connect 1 0 27 1;
#X connect 2 0 12 1;
#X connect 2 0 19 1;
#X connect 6 0 7 0;
#X connect 6 1 8 0;
#X connect 7 0 10 0;
#X connect 8 0 10 0;
#X connect 8 1 9 0;
#X connect 9 0 10 0;
#X connect 10 0 28 0;
#X connect 11 0 14 0;
#X connect 12 0 14 1;
#X connect 12 0 26 1;
#X connect 13 0 12 0;
#X connect 14 0 15 0;
#X connect 15 0 16 0;
#X connect 17 0 18 0;
#X connect 17 1 20 0;
#X connect 18 0 19 0;
#X connect 19 0 16 0;
#X connect 20 0 23 0;
#X connect 20 1 21 0;
#X connect 21 0 22 0;
#X connect 22 0 16 0;
#X connect 23 0 24 0;
#X connect 24 0 25 0;
#X connect 25 0 26 0;
#X connect 26 0 27 0;
#X connect 27 0 16 0;
#X connect 28 0 11 0;
#X connect 28 1 17 0;
#X restore 96 464 pd hue2rgb;
#X msg 96 210 \$2 \$3 \$1;
#X obj 96 256 t f f f;
#X obj 96 279 + 0.333333;
#X obj 236 417 - 0.333333;
#X obj 36 510 * 255;
#X obj 36 533 + 0.5;
#X obj 36 556 i;
#X obj 36 579 outlet;
#X obj 136 533 + 0.5;
#X obj 136 556 i;
#X obj 136 579 outlet;
#X obj 236 533 + 0.5;
#X obj 236 556 i;
#X obj 236 579 outlet;
#X obj 136 510 * 255;
#X obj 236 510 * 255;
#X obj 36 49 inlet;
#X obj 116 49 inlet;
#X obj 186 49 inlet;
#X text 37 29 H;
#X text 117 29 S;
#X text 187 29 L;
#N canvas 796 359 323 436 hue2rgb 0;
#X obj 36 49 inlet;
#X obj 116 49 inlet;
#X obj 196 49 inlet;
#X text 38 30 T;
#X text 198 30 Q;
#X text 118 30 P;
#X obj 36 72 moses;
#X obj 36 95 + 1;
#X obj 63 95 moses 1;
#X obj 102 118 - 1;
#X obj 36 141 t f;
#X obj 36 187 * 6;
#X obj 181 118 +;
#X obj 181 95 * -1;
#X obj 36 210 *;
#X obj 36 233 +;
#X obj 36 371 outlet;
#X obj 117 187 moses 0.5;
#X obj 117 210 b;
#X obj 117 233 f;
#X obj 168 210 moses 0.666667;
#X obj 249 233 b;
#X obj 249 256 f;
#X obj 168 233 * -1;
#X obj 168 256 + 0.666667;
#X obj 168 279 * 6;
#X obj 168 302 *;
#X obj 168 325 +;
#X obj 36 164 moses 0.166667;
#X connect 0 0 6 0;
#X connect 1 0 13 0;
#X connect 1 0 15 1;
#X connect 1 0 22 1;
#X connect 1 0 27 1;
#X connect 2 0 12 1;
#X connect 2 0 19 1;
#X connect 6 0 7 0;
#X connect 6 1 8 0;
#X connect 7 0 10 0;
#X connect 8 0 10 0;
#X connect 8 1 9 0;
#X connect 9 0 10 0;
#X connect 10 0 28 0;
#X connect 11 0 14 0;
#X connect 12 0 14 1;
#X connect 12 0 26 1;
#X connect 13 0 12 0;
#X connect 14 0 15 0;
#X connect 15 0 16 0;
#X connect 17 0 18 0;
#X connect 17 1 20 0;
#X connect 18 0 19 0;
#X connect 19 0 16 0;
#X connect 20 0 23 0;
#X connect 20 1 21 0;
#X connect 21 0 22 0;
#X connect 22 0 16 0;
#X connect 23 0 24 0;
#X connect 24 0 25 0;
#X connect 25 0 26 0;
#X connect 26 0 27 0;
#X connect 27 0 16 0;
#X connect 28 0 11 0;
#X connect 28 1 17 0;
#X restore 166 464 pd hue2rgb;
#N canvas 796 359 323 436 hue2rgb 0;
#X obj 36 49 inlet;
#X obj 116 49 inlet;
#X obj 196 49 inlet;
#X text 38 30 T;
#X text 198 30 Q;
#X text 118 30 P;
#X obj 36 72 moses;
#X obj 36 95 + 1;
#X obj 63 95 moses 1;
#X obj 102 118 - 1;
#X obj 36 141 t f;
#X obj 36 187 * 6;
#X obj 181 118 +;
#X obj 181 95 * -1;
#X obj 36 210 *;
#X obj 36 233 +;
#X obj 36 371 outlet;
#X obj 117 187 moses 0.5;
#X obj 117 210 b;
#X obj 117 233 f;
#X obj 168 210 moses 0.666667;
#X obj 249 233 b;
#X obj 249 256 f;
#X obj 168 233 * -1;
#X obj 168 256 + 0.666667;
#X obj 168 279 * 6;
#X obj 168 302 *;
#X obj 168 325 +;
#X obj 36 164 moses 0.166667;
#X connect 0 0 6 0;
#X connect 1 0 13 0;
#X connect 1 0 15 1;
#X connect 1 0 22 1;
#X connect 1 0 27 1;
#X connect 2 0 12 1;
#X connect 2 0 19 1;
#X connect 6 0 7 0;
#X connect 6 1 8 0;
#X connect 7 0 10 0;
#X connect 8 0 10 0;
#X connect 8 1 9 0;
#X connect 9 0 10 0;
#X connect 10 0 28 0;
#X connect 11 0 14 0;
#X connect 12 0 14 1;
#X connect 12 0 26 1;
#X connect 13 0 12 0;
#X connect 14 0 15 0;
#X connect 15 0 16 0;
#X connect 17 0 18 0;
#X connect 17 1 20 0;
#X connect 18 0 19 0;
#X connect 19 0 16 0;
#X connect 20 0 23 0;
#X connect 20 1 21 0;
#X connect 21 0 22 0;
#X connect 22 0 16 0;
#X connect 23 0 24 0;
#X connect 24 0 25 0;
#X connect 25 0 26 0;
#X connect 26 0 27 0;
#X connect 27 0 16 0;
#X connect 28 0 11 0;
#X connect 28 1 17 0;
#X restore 236 464 pd hue2rgb;
#X text 37 601 R;
#X text 137 601 G;
#X text 237 601 B;
#X obj 36 72 clip 0 360;
#X obj 36 95 / 360;
#X obj 116 72 clip 0 1;
#X obj 186 72 clip 0 1;
#X connect 0 0 1 0;
#X connect 1 0 28 0;
#X connect 1 1 38 0;
#X connect 1 2 39 0;
#X connect 2 0 8 0;
#X connect 3 0 2 0;
#X connect 3 1 2 2;
#X connect 3 1 0 1;
#X connect 4 0 5 0;
#X connect 4 1 24 0;
#X connect 5 0 0 0;
#X connect 6 0 25 0;
#X connect 6 1 13 0;
#X connect 6 2 19 1;
#X connect 6 2 17 1;
#X connect 6 2 11 0;
#X connect 7 0 2 0;
#X connect 7 1 2 1;
#X connect 8 0 4 0;
#X connect 10 0 12 0;
#X connect 10 1 16 0;
#X connect 11 0 12 1;
#X connect 12 0 20 0;
#X connect 13 0 21 0;
#X connect 13 1 10 0;
#X connect 16 0 17 0;
#X connect 16 1 19 0;
#X connect 17 0 18 0;
#X connect 18 0 20 0;
#X connect 19 0 18 1;
#X connect 20 0 22 1;
#X connect 20 0 23 2;
#X connect 20 0 46 2;
#X connect 20 0 47 2;
#X connect 21 0 22 0;
#X connect 22 0 23 1;
#X connect 22 0 46 1;
#X connect 22 0 47 1;
#X connect 23 0 28 0;
#X connect 24 0 6 0;
#X connect 25 0 26 0;
#X connect 25 1 46 0;
#X connect 25 2 27 0;
#X connect 26 0 23 0;
#X connect 27 0 47 0;
#X connect 28 0 29 0;
#X connect 29 0 30 0;
#X connect 30 0 31 0;
#X connect 32 0 33 0;
#X connect 33 0 34 0;
#X connect 35 0 36 0;
#X connect 36 0 37 0;
#X connect 38 0 32 0;
#X connect 39 0 35 0;
#X connect 40 0 51 0;
#X connect 41 0 53 0;
#X connect 42 0 54 0;
#X connect 46 0 38 0;
#X connect 47 0 39 0;
#X connect 51 0 52 0;
#X connect 52 0 2 0;
#X connect 53 0 7 0;
#X connect 54 0 3 0;
#X restore 215 128 pd hsl2rgb;
#X obj 215 49 inlet;
#X obj 294 16 inlet;
#X obj 375 12 inlet;
#X obj 246 288 outlet;
#X obj 327 290 outlet;
#X obj 409 296 outlet;
#X obj 50 798 expr $f1 / 800;
#X obj 60 808 expr $f1 / 800;
#X obj 207 239 expr $f1 / 255;
#X obj 332 238 expr $f1 / 255;
#X obj 469 233 expr $f1 / 255;
#X connect 0 0 20 1;
#X connect 1 0 20 2;
#X connect 2 0 7 0;
#X connect 2 0 29 0;
#X connect 3 0 4 0;
#X connect 3 1 4 1;
#X connect 4 0 5 0;
#X connect 5 0 6 0;
#X connect 5 1 6 1;
#X connect 6 0 10 0;
#X connect 7 0 6 0;
#X connect 8 0 4 0;
#X connect 9 0 3 0;
#X connect 10 0 11 0;
#X connect 11 0 12 0;
#X connect 13 0 8 0;
#X connect 13 0 30 0;
#X connect 14 0 9 0;
#X connect 14 0 31 0;
#X connect 17 0 20 0;
#X connect 18 0 0 0;
#X connect 19 0 1 0;
#X connect 20 0 2 0;
#X connect 20 1 13 0;
#X connect 20 2 14 0;
#X connect 21 0 17 0;
#X connect 22 0 18 0;
#X connect 23 0 19 0;
#X connect 29 0 24 0;
#X connect 30 0 25 0;
#X connect 31 0 26 0;
#X restore 50 47 pd HSV2RGB;
#X obj 475 298 s ManoIzqX;
#X obj 50 2 r ManoIzqX;
#X obj 540 349 s ManoIzqY;
#X obj 141 28 r ManoIzqY;
#X obj 668 312 s ManoDerX;
#X obj 731 362 s ManoDerY;
#X obj 50 139 s Analog10R;
#X obj 152 164 s Analog9G;
#X obj 248 192 s Analog11B;
#X obj 55 334 s Analog5R;
#X obj 175 359 s Analog3G;
#X obj 284 398 s Analog6B;
#N canvas 222 325 1033 571 HSV2RGB 0;
#X obj 295 79 / 100;
#X obj 368 96 / 100;
#X obj 215 173 nbx 4 14 0 255 0 0 empty empty Red 48 8 0 10 #fcfcfc #000000 #000000 0 256;
#X obj 376 339 t b f;
#X obj 296 384 +;
#X obj 296 406 t b f;
#X obj 216 451 +;
#X obj 215 192 * -65536;
#X obj 295 192 * -256;
#X obj 376 317 * -1;
#X obj 216 473 - 1;
#X msg 216 495 color \$1;
#X obj 216 517 s \$0-setcanvas;
#X obj 295 173 nbx 4 14 0 255 0 0 empty empty Green 48 8 0 10 #fcfcfc #000000 #000000 0 256;
#X obj 375 173 nbx 4 14 0 255 0 0 empty empty Blue 48 8 0 10 #fcfcfc #000000 #000000 0 256;
#X obj 44 60 cnv 15 100 350 empty \$0-setcanvas empty 20 12 0 14 #8c5200 #404040 0;
#X text 43 40 Canvas:;
#X obj 215 100 nbx 5 14 0 360 0 1 empty empty Hue 0 -8 0 10 #fcfcfc #000000 #000000 35 256;
#X obj 295 60 nbx 5 14 0 100 0 1 empty empty Saturation 0 -8 0 10 #fcfcfc #000000 #000000 100 256;
#X obj 375 60 nbx 5 14 0 100 0 1 empty empty Lightness 0 -8 0 10 #fcfcfc #000000 #000000 27.5 256;
#N canvas 192 192 450 300 hsl2rgb 0;
#X obj 36 233 f;
#X obj 36 256 t f f f;
#X obj 36 141 pack f f f;
#X obj 186 95 t b f;
#X obj 36 187 route 0;
#X obj 36 210 b;
#X obj 96 233 unpack f f f;
#X obj 116 95 t b f;
#X msg 36 164 \$2 \$1 \$3;
#X text 97 192 H;
#X obj 208 302 moses 0.5;
#X obj 223 325 + 1;
#X obj 208 348 *;
#X obj 171 279 t f f;
#X text 137 192 S;
#X text 117 192 L;
#X obj 259 325 t f f;
#X obj 259 348 +;
#X obj 259 371 -;
#X obj 286 348 *;
#X obj 208 394 t f;
#X obj 171 394 * 2;
#X obj 171 417 -;
#N canvas 796 364 323 436 hue2rgb 0;
#X obj 36 49 inlet;
#X obj 116 49 inlet;
#X obj 196 49 inlet;
#X text 38 30 T;
#X text 198 30 Q;
#X text 118 30 P;
#X obj 36 72 moses;
#X obj 36 95 + 1;
#X obj 63 95 moses 1;
#X obj 102 118 - 1;
#X obj 36 141 t f;
#X obj 36 187 * 6;
#X obj 181 118 +;
#X obj 181 95 * -1;
#X obj 36 210 *;
#X obj 36 233 +;
#X obj 36 371 outlet;
#X obj 117 187 moses 0.5;
#X obj 117 210 b;
#X obj 117 233 f;
#X obj 168 210 moses 0.666667;
#X obj 249 233 b;
#X obj 249 256 f;
#X obj 168 233 * -1;
#X obj 168 256 + 0.666667;
#X obj 168 279 * 6;
#X obj 168 302 *;
#X obj 168 325 +;
#X obj 36 164 moses 0.166667;
#X connect 0 0 6 0;
#X connect 1 0 13 0;
#X connect 1 0 15 1;
#X connect 1 0 22 1;
#X connect 1 0 27 1;
#X connect 2 0 12 1;
#X connect 2 0 19 1;
#X connect 6 0 7 0;
#X connect 6 1 8 0;
#X connect 7 0 10 0;
#X connect 8 0 10 0;
#X connect 8 1 9 0;
#X connect 9 0 10 0;
#X connect 10 0 28 0;
#X connect 11 0 14 0;
#X connect 12 0 14 1;
#X connect 12 0 26 1;
#X connect 13 0 12 0;
#X connect 14 0 15 0;
#X connect 15 0 16 0;
#X connect 17 0 18 0;
#X connect 17 1 20 0;
#X connect 18 0 19 0;
#X connect 19 0 16 0;
#X connect 20 0 23 0;
#X connect 20 1 21 0;
#X connect 21 0 22 0;
#X connect 22 0 16 0;
#X connect 23 0 24 0;
#X connect 24 0 25 0;
#X connect 25 0 26 0;
#X connect 26 0 27 0;
#X connect 27 0 16 0;
#X connect 28 0 11 0;
#X connect 28 1 17 0;
#X restore 96 464 pd hue2rgb;
#X msg 96 210 \$2 \$3 \$1;
#X obj 96 256 t f f f;
#X obj 96 279 + 0.333333;
#X obj 236 417 - 0.333333;
#X obj 36 510 * 255;
#X obj 36 533 + 0.5;
#X obj 36 556 i;
#X obj 36 579 outlet;
#X obj 136 533 + 0.5;
#X obj 136 556 i;
#X obj 136 579 outlet;
#X obj 236 533 + 0.5;
#X obj 236 556 i;
#X obj 236 579 outlet;
#X obj 136 510 * 255;
#X obj 236 510 * 255;
#X obj 36 49 inlet;
#X obj 116 49 inlet;
#X obj 186 49 inlet;
#X text 37 29 H;
#X text 117 29 S;
#X text 187 29 L;
#N canvas 796 359 323 436 hue2rgb 0;
#X obj 36 49 inlet;
#X obj 116 49 inlet;
#X obj 196 49 inlet;
#X text 38 30 T;
#X text 198 30 Q;
#X text 118 30 P;
#X obj 36 72 moses;
#X obj 36 95 + 1;
#X obj 63 95 moses 1;
#X obj 102 118 - 1;
#X obj 36 141 t f;
#X obj 36 187 * 6;
#X obj 181 118 +;
#X obj 181 95 * -1;
#X obj 36 210 *;
#X obj 36 233 +;
#X obj 36 371 outlet;
#X obj 117 187 moses 0.5;
#X obj 117 210 b;
#X obj 117 233 f;
#X obj 168 210 moses 0.666667;
#X obj 249 233 b;
#X obj 249 256 f;
#X obj 168 233 * -1;
#X obj 168 256 + 0.666667;
#X obj 168 279 * 6;
#X obj 168 302 *;
#X obj 168 325 +;
#X obj 36 164 moses 0.166667;
#X connect 0 0 6 0;
#X connect 1 0 13 0;
#X connect 1 0 15 1;
#X connect 1 0 22 1;
#X connect 1 0 27 1;
#X connect 2 0 12 1;
#X connect 2 0 19 1;
#X connect 6 0 7 0;
#X connect 6 1 8 0;
#X connect 7 0 10 0;
#X connect 8 0 10 0;
#X connect 8 1 9 0;
#X connect 9 0 10 0;
#X connect 10 0 28 0;
#X connect 11 0 14 0;
#X connect 12 0 14 1;
#X connect 12 0 26 1;
#X connect 13 0 12 0;
#X connect 14 0 15 0;
#X connect 15 0 16 0;
#X connect 17 0 18 0;
#X connect 17 1 20 0;
#X connect 18 0 19 0;
#X connect 19 0 16 0;
#X connect 20 0 23 0;
#X connect 20 1 21 0;
#X connect 21 0 22 0;
#X connect 22 0 16 0;
#X connect 23 0 24 0;
#X connect 24 0 25 0;
#X connect 25 0 26 0;
#X connect 26 0 27 0;
#X connect 27 0 16 0;
#X connect 28 0 11 0;
#X connect 28 1 17 0;
#X restore 166 464 pd hue2rgb;
#N canvas 796 359 323 436 hue2rgb 0;
#X obj 36 49 inlet;
#X obj 116 49 inlet;
#X obj 196 49 inlet;
#X text 38 30 T;
#X text 198 30 Q;
#X text 118 30 P;
#X obj 36 72 moses;
#X obj 36 95 + 1;
#X obj 63 95 moses 1;
#X obj 102 118 - 1;
#X obj 36 141 t f;
#X obj 36 187 * 6;
#X obj 181 118 +;
#X obj 181 95 * -1;
#X obj 36 210 *;
#X obj 36 233 +;
#X obj 36 371 outlet;
#X obj 117 187 moses 0.5;
#X obj 117 210 b;
#X obj 117 233 f;
#X obj 168 210 moses 0.666667;
#X obj 249 233 b;
#X obj 249 256 f;
#X obj 168 233 * -1;
#X obj 168 256 + 0.666667;
#X obj 168 279 * 6;
#X obj 168 302 *;
#X obj 168 325 +;
#X obj 36 164 moses 0.166667;
#X connect 0 0 6 0;
#X connect 1 0 13 0;
#X connect 1 0 15 1;
#X connect 1 0 22 1;
#X connect 1 0 27 1;
#X connect 2 0 12 1;
#X connect 2 0 19 1;
#X connect 6 0 7 0;
#X connect 6 1 8 0;
#X connect 7 0 10 0;
#X connect 8 0 10 0;
#X connect 8 1 9 0;
#X connect 9 0 10 0;
#X connect 10 0 28 0;
#X connect 11 0 14 0;
#X connect 12 0 14 1;
#X connect 12 0 26 1;
#X connect 13 0 12 0;
#X connect 14 0 15 0;
#X connect 15 0 16 0;
#X connect 17 0 18 0;
#X connect 17 1 20 0;
#X connect 18 0 19 0;
#X connect 19 0 16 0;
#X connect 20 0 23 0;
#X connect 20 1 21 0;
#X connect 21 0 22 0;
#X connect 22 0 16 0;
#X connect 23 0 24 0;
#X connect 24 0 25 0;
#X connect 25 0 26 0;
#X connect 26 0 27 0;
#X connect 27 0 16 0;
#X connect 28 0 11 0;
#X connect 28 1 17 0;
#X restore 236 464 pd hue2rgb;
#X text 37 601 R;
#X text 137 601 G;
#X text 237 601 B;
#X obj 36 72 clip 0 360;
#X obj 36 95 / 360;
#X obj 116 72 clip 0 1;
#X obj 186 72 clip 0 1;
#X connect 0 0 1 0;
#X connect 1 0 28 0;
#X connect 1 1 38 0;
#X connect 1 2 39 0;
#X connect 2 0 8 0;
#X connect 3 0 2 0;
#X connect 3 1 2 2;
#X connect 3 1 0 1;
#X connect 4 0 5 0;
#X connect 4 1 24 0;
#X connect 5 0 0 0;
#X connect 6 0 25 0;
#X connect 6 1 13 0;
#X connect 6 2 19 1;
#X connect 6 2 17 1;
#X connect 6 2 11 0;
#X connect 7 0 2 0;
#X connect 7 1 2 1;
#X connect 8 0 4 0;
#X connect 10 0 12 0;
#X connect 10 1 16 0;
#X connect 11 0 12 1;
#X connect 12 0 20 0;
#X connect 13 0 21 0;
#X connect 13 1 10 0;
#X connect 16 0 17 0;
#X connect 16 1 19 0;
#X connect 17 0 18 0;
#X connect 18 0 20 0;
#X connect 19 0 18 1;
#X connect 20 0 22 1;
#X connect 20 0 23 2;
#X connect 20 0 46 2;
#X connect 20 0 47 2;
#X connect 21 0 22 0;
#X connect 22 0 23 1;
#X connect 22 0 46 1;
#X connect 22 0 47 1;
#X connect 23 0 28 0;
#X connect 24 0 6 0;
#X connect 25 0 26 0;
#X connect 25 1 46 0;
#X connect 25 2 27 0;
#X connect 26 0 23 0;
#X connect 27 0 47 0;
#X connect 28 0 29 0;
#X connect 29 0 30 0;
#X connect 30 0 31 0;
#X connect 32 0 33 0;
#X connect 33 0 34 0;
#X connect 35 0 36 0;
#X connect 36 0 37 0;
#X connect 38 0 32 0;
#X connect 39 0 35 0;
#X connect 40 0 51 0;
#X connect 41 0 53 0;
#X connect 42 0 54 0;
#X connect 46 0 38 0;
#X connect 47 0 39 0;
#X connect 51 0 52 0;
#X connect 52 0 2 0;
#X connect 53 0 7 0;
#X connect 54 0 3 0;
#X restore 215 128 pd hsl2rgb;
#X obj 215 49 inlet;
#X obj 294 16 inlet;
#X obj 375 12 inlet;
#X obj 246 288 outlet;
#X obj 327 290 outlet;
#X obj 409 296 outlet;
#X obj 50 798 expr $f1 / 800;
#X obj 60 808 expr $f1 / 800;
#X obj 207 239 expr $f1 / 255;
#X obj 332 238 expr $f1 / 255;
#X obj 469 233 expr $f1 / 255;
#X connect 0 0 20 1;
#X connect 1 0 20 2;
#X connect 2 0 7 0;
#X connect 2 0 29 0;
#X connect 3 0 4 0;
#X connect 3 1 4 1;
#X connect 4 0 5 0;
#X connect 5 0 6 0;
#X connect 5 1 6 1;
#X connect 6 0 10 0;
#X connect 7 0 6 0;
#X connect 8 0 4 0;
#X connect 9 0 3 0;
#X connect 10 0 11 0;
#X connect 11 0 12 0;
#X connect 13 0 8 0;
#X connect 13 0 30 0;
#X connect 14 0 9 0;
#X connect 14 0 31 0;
#X connect 17 0 20 0;
#X connect 18 0 0 0;
#X connect 19 0 1 0;
#X connect 20 0 2 0;
#X connect 20 1 13 0;
#X connect 20 2 14 0;
#X connect 21 0 17 0;
#X connect 22 0 18 0;
#X connect 23 0 19 0;
#X connect 29 0 24 0;
#X connect 30 0 25 0;
#X connect 31 0 26 0;
#X restore 55 234 pd HSV2RGB;
#X obj 55 189 r ManoDerX;
#X obj 146 215 r ManoDerY;
#X obj 668 288 expr $f1;
#N canvas 481 273 1422 788 ArduinoPatch 0;
#X msg 925 350 open \$1;
#X msg 1054 445;
#X obj 957 471 print ARDUINO.INFO;
#X floatatom 888 270 5 0 0 0 - - - 0;
#X obj 824 101 bng 19 250 50 1 empty empty empty 0 -10 0 12 #fcfcfc #000000 #000000;
#X msg 929 141 pinMode 9 pwm;
#X msg 961 193 pinMode 10 pwm;
#X msg 949 169 pinMode 11 pwm;
#X msg 897 68 pinMode 3 pwm;
#X msg 916 113 pinMode 5 pwm;
#X msg 916 91 pinMode 6 pwm;
#X msg 233 408 open \$1;
#X msg 347 492;
#X obj 250 517 print ARDUINO.INFO;
#X floatatom 196 332 5 0 0 0 - - - 0;
#X obj 125 132 bng 19 250 50 1 empty empty empty 0 -10 0 12 #fcfcfc #000000 #000000;
#X msg 235 193 pinMode 9 pwm;
#X msg 254 222 pinMode 10 pwm;
#X msg 254 250 pinMode 11 pwm;
#X msg 190 113 pinMode 3 pwm;
#X msg 209 141 pinMode 5 pwm;
#X msg 209 169 pinMode 6 pwm;
#X obj 299 445 pduino/arduino;
#X obj 1006 408 pduino/arduino;
#X msg 1168 408 devices;
#X msg 596 376 open \$1;
#X msg 710 471;
#X obj 613 492 print ARDUINO.INFO;
#X floatatom 559 311 5 0 0 0 - - - 0;
#X obj 499 109 bng 19 250 50 1 empty empty empty 0 -10 0 12 #fcfcfc #000000 #000000;
#X msg 598 169 pinMode 9 pwm;
#X msg 617 193 pinMode 10 pwm;
#X msg 617 221 pinMode 11 pwm;
#X msg 553 92 pinMode 3 pwm;
#X msg 572 113 pinMode 5 pwm;
#X msg 572 141 pinMode 6 pwm;
#X obj 662 408 pduino/arduino;
#X obj 824 82 r bang;
#X obj 125 113 r bang;
#X obj 499 90 r bang;
#X obj 1005 289 r Analog10R;
#X obj 361 350 r Analog10R;
#X obj 699 332 r Analog10R;
#X obj 1005 317 r Analog9G;
#X obj 1005 345 r Analog11B;
#X obj 361 378 r Analog9G;
#X obj 361 406 r Analog11B;
#X obj 699 360 r Analog9G;
#X obj 699 388 r Analog11B;
#X obj 1100 311 r Analog5R;
#X obj 1100 339 r Analog3G;
#X obj 1100 367 r Analog6B;
#X obj 759 270 r Analog5R;
#X obj 759 298 r Analog3G;
#X obj 759 326 r Analog6B;
#X obj 457 350 r Analog5R;
#X obj 457 378 r Analog3G;
#X obj 457 406 r Analog6B;
#X obj 196 302 inlet;
#X obj 888 247 inlet;
#X obj 559 284 inlet;
#X obj 1222 364 bng 19 250 50 0 empty empty empty 0 -10 0 12 #fcfcfc #000000 #000000;
#X obj 1222 334 inlet;
#X connect 0 0 23 0;
#X connect 3 0 0 0;
#X connect 4 0 5 0;
#X connect 4 0 6 0;
#X connect 4 0 7 0;
#X connect 4 0 8 0;
#X connect 4 0 9 0;
#X connect 4 0 10 0;
#X connect 5 0 23 0;
#X connect 6 0 23 0;
#X connect 7 0 23 0;
#X connect 8 0 23 0;
#X connect 9 0 23 0;
#X connect 10 0 23 0;
#X connect 11 0 22 0;
#X connect 14 0 11 0;
#X connect 15 0 16 0;
#X connect 15 0 17 0;
#X connect 15 0 18 0;
#X connect 15 0 19 0;
#X connect 15 0 20 0;
#X connect 15 0 21 0;
#X connect 16 0 22 0;
#X connect 17 0 22 0;
#X connect 18 0 22 0;
#X connect 19 0 22 0;
#X connect 20 0 22 0;
#X connect 21 0 22 0;
#X connect 22 0 13 0;
#X connect 22 1 12 0;
#X connect 23 0 2 0;
#X connect 23 1 1 0;
#X connect 24 0 23 0;
#X connect 25 0 36 0;
#X connect 28 0 25 0;
#X connect 29 0 30 0;
#X connect 29 0 31 0;
#X connect 29 0 32 0;
#X connect 29 0 33 0;
#X connect 29 0 34 0;
#X connect 29 0 35 0;
#X connect 30 0 36 0;
#X connect 31 0 36 0;
#X connect 32 0 36 0;
#X connect 33 0 36 0;
#X connect 34 0 36 0;
#X connect 35 0 36 0;
#X connect 36 0 27 0;
#X connect 36 1 26 0;
#X connect 37 0 4 0;
#X connect 38 0 15 0;
#X connect 39 0 29 0;
#X connect 40 0 23 0;
#X connect 41 0 22 0;
#X connect 42 0 36 0;
#X connect 43 0 23 0;
#X connect 44 0 23 0;
#X connect 45 0 22 0;
#X connect 46 0 22 0;
#X connect 47 0 36 0;
#X connect 48 0 36 0;
#X connect 49 0 23 0;
#X connect 50 0 23 0;
#X connect 51 0 23 0;
#X connect 52 0 36 0;
#X connect 53 0 36 0;
#X connect 54 0 36 0;
#X connect 55 0 22 0;
#X connect 56 0 22 0;
#X connect 57 0 22 0;
#X connect 58 0 14 0;
#X connect 59 0 3 0;
#X connect 60 0 28 0;
#X connect 61 0 24 0;
#X connect 62 0 61 0;
#X restore 564 50 pd ArduinoPatch;
#X f 38;
#X text 772 28 DEVICES;
#X obj 833 22 bng 19 250 50 0 empty empty empty 0 -10 0 12 #fcfcfc #000000 #000000;
#X obj 559 16 nbx 5 17 -1e+37 1e+37 0 1 empty empty empty 0 -10 0 12 #fcfcfc #000000 #000000 14 256;
#X obj 701 17 nbx 5 17 -1e+37 1e+37 0 1 empty empty empty 0 -10 0 12 #fcfcfc #000000 #000000 16 256;
#X obj 633 16 nbx 5 17 -1e+37 1e+37 0 1 empty empty empty 0 -10 0 12 #fcfcfc #000000 #000000 15 256;
#X text 779 79 SET PWM;
#X obj 478 84 bng 19 250 50 1 empty empty empty 0 -10 0 12 #fcfcfc #000000 #000000;
#X obj 835 102 delay 2000;
#X obj 477 108 delay 500;
#X obj 539 328 expr $f1 / 8;
#X obj 477 281 expr $f1 / 1.5;
#X obj 731 338 expr $f1 / 10;
#X connect 0 0 28 0;
#X connect 1 0 0 0;
#X connect 2 0 4 0;
#X connect 3 0 5 0;
#X connect 4 0 27 0;
#X connect 5 0 26 0;
#X connect 6 0 11 0;
#X connect 7 0 9 0;
#X connect 8 0 10 0;
#X connect 9 0 30 0;
#X connect 10 0 29 0;
#X connect 11 0 31 0;
#X connect 12 0 15 0;
#X connect 13 0 12 0;
#X connect 14 0 12 0;
#X connect 15 0 16 0;
#X connect 16 0 47 0;
#X connect 16 1 46 0;
#X connect 16 3 35 0;
#X connect 16 4 48 0;
#X connect 18 0 44 0;
#X connect 19 0 3 0;
#X connect 19 1 2 0;
#X connect 19 2 1 0;
#X connect 21 0 19 0;
#X connect 23 0 19 2;
#X connect 32 0 8 0;
#X connect 32 1 7 0;
#X connect 32 2 6 0;
#X connect 33 0 32 0;
#X connect 34 0 32 2;
#X connect 35 0 24 0;
#X connect 38 0 36 3;
#X connect 39 0 36 0;
#X connect 40 0 36 2;
#X connect 41 0 36 1;
#X connect 43 0 45 0;
#X connect 44 0 17 0;
#X connect 45 0 14 0;
#X connect 46 0 22 0;
#X connect 47 0 20 0;
#X connect 48 0 25 0;
